<svg xmlns="http://www.w3.org/2000/svg" version="1.1" xmlns:xlink="http://www.w3.org/1999/xlink" xmlns:svgjs="http://svgjs.dev/svgjs" width="1000" height="1000" viewBox="0 0 1000 1000"><rect width="1000" height="1000" fill="#ffffff"></rect><g transform="matrix(0.7,0,0,0.7,149.57575757575756,282.1265587044535)"><svg viewBox="0 0 396 247" data-background-color="#ffffff" preserveAspectRatio="xMidYMid meet" height="623" width="1000" xmlns="http://www.w3.org/2000/svg" xmlns:xlink="http://www.w3.org/1999/xlink"><g id="tight-bounds" transform="matrix(1,0,0,1,0.2400000000000091,-0.09999999999999432)"><svg viewBox="0 0 395.52 247.2" height="247.2" width="395.52"><g><svg></svg></g><g><svg viewBox="0 0 395.52 247.2" height="247.2" width="395.52"><g><path xmlns="http://www.w3.org/2000/svg" d="M55.039 247.2l26.403-45.732 2.576 0-25.045 43.379h277.574l-25.045-43.379 2.576 0 26.403 45.732zM197.76 0l26.403 45.732-2.575 0-23.828-41.271-23.828 41.271-2.575 0z" fill="#000000" fill-rule="nonzero" stroke="none" stroke-width="1" stroke-linecap="butt" stroke-linejoin="miter" stroke-miterlimit="10" stroke-dasharray="" stroke-dashoffset="0" font-family="none" font-weight="none" font-size="none" text-anchor="none" style="mix-blend-mode: normal" data-fill-palette-color="tertiary"></path></g><g transform="matrix(1,0,0,1,101.47139658708187,67.97999999999999)"><svg viewBox="0 0 192.57720682583624 111.24" height="111.24" width="192.57720682583624"><g><svg viewBox="0 0 397.4975999999999 229.60989907798233" height="111.24" width="192.57720682583624"><g><rect width="397.4975999999999" height="7.032647948185059" x="0" y="126.1835067645654" fill="#000000" opacity="1" stroke-width="0" stroke="transparent" fill-opacity="1" class="rect-o-0" data-fill-palette-color="secondary" rx="1%" id="o-0" data-palette-color="#adbfb8"></rect></g><g transform="matrix(1,0,0,1,0.9887999999999693,151.62622787553858)"><svg viewBox="0 0 395.52 77.98367120244376" height="77.98367120244376" width="395.52"><g id="textblocktransform"><svg viewBox="0 0 395.52 77.98367120244376" height="77.98367120244376" width="395.52" id="textblock"><g><svg viewBox="0 0 395.52 77.98367120244376" height="77.98367120244376" width="395.52"><g transform="matrix(1,0,0,1,0,0)"><svg width="395.52" viewBox="3.5 -34.900001525878906 180.0399932861328 35.5" height="77.98367120244376" data-palette-color="#31c48d"><path d="M14.8 0.6Q9.45 0.6 6.48-2.43 3.5-5.45 3.5-11.15L3.5-11.15 3.5-34.3 7.9-34.3 7.9-10.9Q7.9-7.3 9.73-5.38 11.55-3.45 14.8-3.45L14.8-3.45Q18.05-3.45 19.88-5.38 21.7-7.3 21.7-10.9L21.7-10.9 21.7-34.3 26.1-34.3 26.1-11.15Q26.1-5.45 23.13-2.43 20.15 0.6 14.8 0.6L14.8 0.6ZM33.1 0L33.1-34.3 46.9-34.3Q51.85-34.3 54.5-31.73 57.15-29.15 57.15-24.8L57.15-24.8Q57.15-21.6 55.55-19.25 53.95-16.9 51.05-15.95L51.05-15.95 57.95 0 53.05 0 46.7-15.15 37.5-15.15 37.5 0 33.1 0ZM37.5-19.15L46.75-19.15Q49.35-19.15 50.95-20.7 52.55-22.25 52.55-24.8L52.55-24.8Q52.55-27.4 51.05-28.85 49.55-30.3 46.75-30.3L46.75-30.3 37.5-30.3 37.5-19.15ZM62.7 0L62.7-34.3 67.1-34.3 67.1 0 62.7 0ZM73.84 0L73.84-34.3 86.84-34.3Q90.69-34.3 93.19-31.98 95.69-29.65 95.69-25.9L95.69-25.9Q95.69-23.05 94.22-20.93 92.74-18.8 90.44-18L90.44-18 90.44-17.8Q93.09-17 94.79-14.65 96.49-12.3 96.49-9.1L96.49-9.1Q96.49-6.3 95.19-4.25 93.89-2.2 91.69-1.1 89.49 0 86.84 0L86.84 0 73.84 0ZM78.24-19.55L85.54-19.55Q87.99-19.55 89.54-21.13 91.09-22.7 91.09-24.95L91.09-24.95Q91.09-27.6 89.69-28.95 88.29-30.3 85.84-30.3L85.84-30.3 78.24-30.3 78.24-19.55ZM78.24-4L86.24-4Q88.74-4 90.32-5.5 91.89-7 91.89-9.7L91.89-9.7Q91.89-12.1 90.24-13.83 88.59-15.55 85.94-15.55L85.94-15.55 78.24-15.55 78.24-4ZM101.44 0L101.44-34.3 122.59-34.3 122.59-30.3 105.84-30.3 105.84-19.55 120.39-19.55 120.39-15.55 105.84-15.55 105.84-4 122.89-4 122.89 0 101.44 0ZM128.79 0L128.79-34.3 142.59-34.3Q147.54-34.3 150.19-31.73 152.84-29.15 152.84-24.8L152.84-24.8Q152.84-21.6 151.24-19.25 149.64-16.9 146.74-15.95L146.74-15.95 153.64 0 148.74 0 142.39-15.15 133.19-15.15 133.19 0 128.79 0ZM133.19-19.15L142.44-19.15Q145.04-19.15 146.64-20.7 148.24-22.25 148.24-24.8L148.24-24.8Q148.24-27.4 146.74-28.85 145.24-30.3 142.44-30.3L142.44-30.3 133.19-30.3 133.19-19.15ZM170.14-14L170.14-17.85 183.54-17.85 183.54 0 180.64 0 179.69-3.8Q176.69 0.6 170.84 0.6L170.84 0.6Q164.29 0.6 160.81-3.85 157.34-8.3 157.34-17.15L157.34-17.15Q157.34-25.9 160.94-30.4 164.54-34.9 171.09-34.9L171.09-34.9Q176.69-34.9 180.11-31.75 183.54-28.6 183.54-22.6L183.54-22.6 179.04-22.6Q179.04-26.75 176.91-28.8 174.79-30.85 171.09-30.85L171.09-30.85Q166.74-30.85 164.34-27.7 161.94-24.55 161.94-18.4L161.94-18.4 161.94-15.9Q161.94-9.7 164.21-6.58 166.49-3.45 170.84-3.45L170.84-3.45Q175.09-3.45 177.06-5.85 179.04-8.25 179.04-13.2L179.04-13.2 179.04-14 170.14-14Z" opacity="1" transform="matrix(1,0,0,1,0,0)" fill="#000000" class="wordmark-text-0" data-fill-palette-color="primary" id="text-0"></path></svg></g></svg></g></svg></g></svg></g><g transform="matrix(1,0,0,1,136.86148478671194,0)"><svg viewBox="0 0 123.77463042657602 107.77343360177728" height="107.77343360177728" width="123.77463042657602"><g><svg xmlns="http://www.w3.org/2000/svg" xmlns:xlink="http://www.w3.org/1999/xlink" version="1.1" x="8" y="0" viewBox="4.9670000076293945 5 90.0009994506836 90" enable-background="new 0 0 100 100" xml:space="preserve" height="107.77343360177728" width="107.77463042657602" class="icon-icon-0" data-fill-palette-color="accent" id="icon-0"><g fill="#096a2e" data-fill-palette-color="accent"><polygon points="81.588,69.219 76.042,77.733 49.901,5 30.566,58.797 24.486,43.546 4.967,95 17.555,95 45,95 64.794,95 82.249,95    94.968,95  " fill="#000000" data-fill-palette-color="accent"></polygon></g></svg></g></svg></g><g></g></svg></g></svg></g></svg></g><defs></defs></svg><rect width="395.52" height="247.2" fill="none" stroke="none" visibility="hidden"></rect></g></svg></g></svg>