<?xml version="1.0" encoding="UTF-8" standalone="no"?>
<svg
   version="1.1"
   width="364.70047"
   height="300"
   viewBox="0 0 364.70048 300.00001"
   id="svg20"
   sodipodi:docname="old_supplier.svg"
   inkscape:version="1.4.2 (f4327f4, 2025-05-13)"
   xmlns:inkscape="http://www.inkscape.org/namespaces/inkscape"
   xmlns:sodipodi="http://sodipodi.sourceforge.net/DTD/sodipodi-0.dtd"
   xmlns="http://www.w3.org/2000/svg"
   xmlns:svg="http://www.w3.org/2000/svg">
  <defs
     id="defs20" />
  <sodipodi:namedview
     id="namedview20"
     pagecolor="#ffffff"
     bordercolor="#000000"
     borderopacity="0.25"
     inkscape:showpageshadow="2"
     inkscape:pageopacity="0.0"
     inkscape:pagecheckerboard="0"
     inkscape:deskcolor="#d1d1d1"
     inkscape:zoom="1.8677694"
     inkscape:cx="209.60832"
     inkscape:cy="124.48003"
     inkscape:window-width="1920"
     inkscape:window-height="1122"
     inkscape:window-x="-8"
     inkscape:window-y="-8"
     inkscape:window-maximized="1"
     inkscape:current-layer="svg20" />
  <g
     transform="matrix(1.0024725,0,0,1.2284361,33.820407,6.3471799)"
     id="g20">
    <defs
       id="SvgjsDefs2352" />
    <g
       id="SvgjsG2353"
       featureKey="9id2mP-0"
       transform="matrix(0.16976775,0,0,0.16976775,60.59066,-21.271898)"
       fill="#000000">
      <g
         id="g19">
        <path
           d="M 661.8,226 637,215.3 c -12.6,-5.4 -27.4,0.4 -32.8,13 L 567.3,314 269.8,185.9 c -4.2,-34.1 -33.4,-60.6 -68.6,-60.6 -38.1,0 -69.2,31 -69.2,69.1 0,38.1 31,69.2 69.2,69.2 12.3,0 23.9,-3.2 33.9,-8.9 l 322.4,138.9 27.1,11.7 c 10.8,4.7 23.3,1 30,-8.2 1.1,-1.5 2,-3.1 2.7,-4.8 l 11.1,-25.7 0.2,-0.4 46.3,-107.5 c 5.4,-12.5 -0.5,-27.2 -13.1,-32.7 z m -460.6,5.9 c -2.4,0 -4.7,-0.2 -7,-0.7 -17.3,-3.3 -30.4,-18.5 -30.4,-36.8 0,-20.6 16.8,-37.4 37.4,-37.4 11.2,0 21.2,4.9 28,12.7 5.8,6.6 9.4,15.3 9.4,24.8 0,20.6 -16.8,37.4 -37.4,37.4 z"
           id="path1" />
        <path
           d="m 628.3,366.7 c -0.1,0.3 -0.2,0.5 -0.3,0.8 l -10.7,24.8 c 0,0 0,0.1 -0.1,0.1 z"
           id="path2" />
        <path
           d="M 545.3,279.8 387.9,212 c -6.1,-2.6 -8.9,-9.7 -6.3,-15.8 l 21,-48.7 c 2.6,-6.1 9.7,-8.9 15.8,-6.3 L 575.8,209 c 6.1,2.6 8.9,9.7 6.3,15.8 l -21,48.7 c -2.6,6.1 -9.7,8.9 -15.8,6.3 z"
           id="path3" />
        <path
           d="m 614.5,397.2 c -6.7,9.2 -19.2,12.9 -30.1,8.3 l -24.8,-10.7 c -0.7,-0.3 -1.5,-0.7 -2.2,-1.1 l 27.1,11.7 c 10.9,4.6 23.3,1 30,-8.2 z"
           id="path4" />
        <path
           d="m 630.3,632.5 -24.9,-10.6 c 0,0 -0.1,0 -0.1,-0.1 z"
           id="path5" />
        <path
           d="m 717.5,549.4 67.1,-157.7 c 2.6,-6.1 9.7,-8.9 15.7,-6.3 l 48.7,20.7 c 6.1,2.6 8.9,9.7 6.3,15.7 l -67.1,157.7 c -2.6,6.1 -9.7,8.9 -15.7,6.3 l -48.7,-20.7 c -6,-2.6 -8.9,-9.7 -6.3,-15.7 z"
           id="path6" />
        <path
           d="m 597,616.1 c 0.1,0.1 0.1,0.1 0.2,0.2 0,-0.1 -0.1,-0.1 -0.2,-0.2 0.1,0 0.1,0 0,0 z"
           id="path7" />
        <path
           d="m 597.2,616.2 c 0.3,0.3 0.5,0.6 0.8,0.8 -0.3,-0.2 -0.5,-0.5 -0.8,-0.8 z"
           id="path8" />
        <path
           d="m 596.1,615 c 0.3,0.4 0.6,0.7 0.9,1 -6.7,-7 -9,-17.6 -5,-27 l 10.6,-24.9 c 0.3,-0.7 0.7,-1.4 1.1,-2.1 l -11.5,27.1 c -1.5,3.6 -2.2,7.4 -2,11.1 0,0.3 0,0.5 0.1,0.7 0,0.3 0,0.5 0.1,0.8 0,0 0,0.1 0,0.1 0.1,0.4 0.1,0.9 0.2,1.3 0.1,0.4 0.1,0.8 0.2,1.2 0,0.2 0.1,0.4 0.2,0.6 0.1,0.4 0.2,0.7 0.3,1 0.1,0.4 0.2,0.8 0.4,1.2 0,0.2 0.1,0.3 0.2,0.5 0.1,0.4 0.3,0.8 0.5,1.1 0.2,0.4 0.3,0.7 0.5,1.1 0.1,0.2 0.2,0.5 0.4,0.7 0,0.1 0.1,0.2 0.1,0.3 0.2,0.3 0.3,0.6 0.5,0.8 0.1,0.3 0.3,0.5 0.5,0.7 0.2,0.3 0.4,0.7 0.7,1 0.2,0.2 0.3,0.5 0.5,0.7 0,0.4 0.2,0.7 0.5,1 z"
           id="path9" />
        <path
           d="m 599.3,618.2 c -0.4,-0.4 -0.8,-0.7 -1.2,-1.1 0.3,0.3 0.7,0.7 1.2,1.1 z"
           id="path10" />
        <path
           d="M 375.8,610.9 365,636.6 c 0.1,-0.2 0.2,-0.5 0.3,-0.7 L 375.8,611 Z"
           id="path11" />
        <path
           d="m 448.8,722.8 158,66.4 c 6.1,2.6 9,9.6 6.4,15.7 l -20.5,48.8 c -2.6,6.1 -9.6,9 -15.7,6.4 L 419,793.7 c -6.1,-2.6 -9,-9.6 -6.4,-15.7 l 20.5,-48.8 c 2.5,-6.1 9.6,-9 15.7,-6.4 z"
           id="path12" />
        <path
           d="m 435.5,609 -27.1,-11.4 c -9.7,-4 -20.6,-1.5 -27.5,5.6 6.9,-7.2 17.9,-9.8 27.6,-5.7 l 24.9,10.5 c 0.8,0.3 1.5,0.6 2.1,1 z"
           id="path13" />
        <path
           d="m 385.7,381.4 -26,-10.8 c 0.3,0.1 0.6,0.2 0.9,0.4 l 25,10.4 c 0.1,-0.1 0.1,-0.1 0.1,0 z"
           id="path14" />
        <path
           d="m 274.1,454.8 -65.7,158.3 c -2.5,6.1 -9.6,9 -15.7,6.5 l -48.9,-20.3 c -6.1,-2.5 -9,-9.6 -6.5,-15.7 L 203,425.4 c 2.5,-6.1 9.6,-9 15.7,-6.5 l 48.9,20.3 c 6.2,2.5 9.1,9.5 6.5,15.6 z"
           id="path15" />
        <g
           id="g16">
          <path
             d="m 798.8,133 c -38.1,0 -69.2,31 -69.2,69.1 0,13.9 4.1,26.8 11.2,37.6 L 603.7,562 592.2,589.1 c -1.5,3.6 -2.2,7.4 -2,11.1 0,0.2 0,0.5 0.1,0.7 0,0.3 0,0.5 0.1,0.8 0,0 0,0.1 0,0.1 0.1,0.4 0.1,0.9 0.2,1.3 0.1,0.4 0.1,0.8 0.2,1.2 0,0.2 0.1,0.4 0.2,0.6 0.1,0.4 0.2,0.7 0.3,1 0.1,0.4 0.2,0.8 0.4,1.2 0,0.2 0.1,0.3 0.2,0.5 0.1,0.4 0.3,0.8 0.5,1.1 0.2,0.4 0.3,0.7 0.5,1.1 0.1,0.2 0.2,0.5 0.4,0.7 0,0.1 0.1,0.2 0.1,0.3 0.2,0.3 0.3,0.6 0.5,0.8 0.1,0.3 0.3,0.5 0.5,0.7 0.2,0.3 0.4,0.7 0.7,1 0.2,0.2 0.3,0.5 0.5,0.7 0.3,0.3 0.5,0.6 0.8,1 0.2,0.2 0.3,0.4 0.5,0.6 0.1,0.1 0.1,0.1 0.2,0.2 0.1,0.1 0.1,0.1 0.2,0.2 0.1,0.1 0.1,0.1 0.1,0.1 0.7,0.7 1.4,1.4 2.2,2 0,0 0,0 0,0 0.4,0.3 0.8,0.6 1.2,0.9 1.5,1.1 3.1,2 4.8,2.7 l 25,10.7 1.2,0.5 107.7,45.8 c 12.6,5.4 27.4,-0.6 32.7,-13.2 l 10.6,-24.9 c 5.4,-12.6 -0.6,-27.3 -13.2,-32.7 L 683.7,571.4 811.9,270.1 c 32.1,-6 56.4,-34.2 56.4,-68 C 868,164 837,133 798.8,133 Z m 27.3,94.7 c -6.8,7.3 -16.5,11.8 -27.3,11.8 -20.6,0 -37.4,-16.8 -37.4,-37.4 0,-0.7 0,-1.5 0.1,-2.2 v 0 c 1.1,-19.6 17.4,-35.2 37.4,-35.2 20.6,0 37.4,16.8 37.4,37.4 0,9.9 -3.9,18.9 -10.2,25.6 z"
             id="path16" />
        </g>
        <g
           id="g17">
          <path
             d="m 392.1,385.2 c -1.9,-1.6 -4,-2.9 -6.3,-3.8 l -26,-10.8 -0.3,-0.1 -108.1,-44.8 c -12.7,-5.3 -27.4,0.8 -32.6,13.5 l -10.4,25 c -5.3,12.7 0.8,27.4 13.5,32.6 l 86.2,35.8 -126.4,304.6 c -28.7,8.4 -49.7,35 -49.7,66.4 0,38.1 31,69.2 69.2,69.2 38.1,0 69.2,-31 69.2,-69.2 0,-16.2 -5.6,-31.1 -15,-42.9 L 387.9,441.2 c 0.4,-0.7 0.7,-1.4 1,-2.1 l 10.4,-25 c 4.2,-10.4 1,-22.1 -7.2,-28.9 z M 201.2,841 c -20.6,0 -37.4,-16.8 -37.4,-37.4 0,-7.6 2.3,-14.6 6.1,-20.5 6.7,-10.2 18.2,-16.9 31.3,-16.9 19.3,0 35.2,14.7 37.2,33.5 v 0 c 0.1,1.3 0.2,2.6 0.2,3.9 0,20.6 -16.8,37.4 -37.4,37.4 z"
             id="path17" />
        </g>
        <g
           id="g18">
          <path
             d="m 795,736.3 c -12.5,0 -24.3,3.4 -34.5,9.2 L 435.5,609 408.4,597.6 c -9.7,-4 -20.6,-1.5 -27.5,5.6 -2.1,2.2 -3.9,4.7 -5.1,7.7 L 365,636.6 319.5,745 c -5.3,12.7 0.7,27.4 13.3,32.7 l 24.9,10.5 c 12.7,5.3 27.4,-0.7 32.7,-13.3 l 36.2,-86.1 299.9,126 c 4.5,33.8 33.5,59.9 68.5,59.9 38.1,0 69.2,-31 69.2,-69.2 0,-38.1 -31,-69.2 -69.2,-69.2 z m 0,106.6 c -11.3,0 -21.4,-5 -28.2,-12.9 v 0 c -5.7,-6.6 -9.2,-15.2 -9.2,-24.5 0,-20.6 16.8,-37.4 37.4,-37.4 1.9,0 3.7,0.1 5.6,0.4 18,2.7 31.9,18.3 31.9,37 0,20.6 -16.8,37.4 -37.5,37.4 z"
             id="path18" />
        </g>
      </g>
    </g>
    <g
       id="SvgjsG2354"
       featureKey="zfl5BF-0"
       transform="matrix(6.8752963,0,0,6.8752963,-4.5376978,97.497868)"
       fill="#000000">
      <path
         d="m 8.88,7.2 v 2 H 5.76 V 20 h -2 V 9.2 h -3.1 v -2 z m 15.36,0.02 h 2.02 c 0.1,1.6 -0.06,3.2 -0.46,4.86 -0.48,1.9 -1.2,3.54 -1.84,4.98 -0.48,1.12 -0.92,2.1 -1.12,2.94 h -2.7 c -0.18,-0.8 -0.48,-1.74 -0.82,-2.82 -0.34,-1.08 -0.7,-2.26 -1.04,-3.54 -0.34,1.36 -0.74,2.58 -1.1,3.7 -0.32,1.02 -0.62,1.9 -0.8,2.66 H 13.74 C 13.52,19.16 13.1,18.18 12.6,17.06 11.96,15.62 11.24,13.98 10.78,12.08 10.36,10.42 10.2,8.82 10.3,7.22 h 2.02 c -0.26,3.64 1.04,6.6 2.12,9.04 0.2,0.46 0.38,0.88 0.56,1.32 0.08,-0.28 0.18,-0.56 0.28,-0.86 0.84,-2.6 1.86,-5.78 1.98,-9.5 h 2.02 c 0.12,3.52 1.14,6.74 1.96,9.36 0.1,0.36 0.22,0.7 0.32,1.02 0.18,-0.44 0.36,-0.88 0.58,-1.34 1.06,-2.44 2.38,-5.4 2.1,-9.04 z M 30.44,20 h -2 V 7.22 h 2 z M 40.84,7.2 h 2 V 20 H 40.6 L 35.12,10.74 V 20 h -2 V 7.2 h 1.1 0.02 1.12 l 5.48,9.28 z"
         id="path19" />
    </g>
  </g>
</svg>
